<?xml version="1.0" encoding="utf-8"?>
<!-- Generator: Adobe Illustrator 25.0.1, SVG Export Plug-In . SVG Version: 6.00 Build 0)  -->
<svg version="1.1" id="Layer_1" xmlns="http://www.w3.org/2000/svg" xmlns:xlink="http://www.w3.org/1999/xlink" x="0px" y="0px"
	 viewBox="0 0 36 36" style="enable-background:new 0 0 36 36;" xml:space="preserve">
<path d="M23.7,0.4c-0.4-0.5-1.1-0.5-1.6-0.1l-9.3,8.6c-0.4,0.3-0.5,0.9-0.2,1.4l2.7,5L0.4,29.1c-0.5,0.4-0.5,1.1-0.1,1.6
	s1.1,0.5,1.6,0.1l14.9-13.8l4.7,3.1c0.4,0.3,1,0.2,1.4-0.1l9.3-8.6c0.5-0.4,0.5-1.1,0.1-1.6L23.7,0.4z M25.9,4.9l2,2.1l-2.5,2.3
	l-2-2.1L25.9,4.9z M24.6,10.2l-2.2,2l-2-2.1l2.2-2L24.6,10.2z M23,1.8L25,3.9l-2.5,2.3L20.6,4L23,1.8z M19.7,4.9L21.6,7l-2.2,2
	l-1.9-2.1L19.7,4.9z M14.3,9.8l2.3-2.1l1.9,2.1l-2.6,2.4L14.3,9.8z M17.1,15.1l-0.7-1.3l3.1-2.9l2,2.1l-3.1,2.9L17.1,15.1z
	 M22.2,18.3l-2.3-1.8l2.6-2.4l2,2.1L22.2,18.3z M25.3,15.4l-2-2.1l2.2-2l2,2.1L25.3,15.4z M28.4,12.6l-2-2.1l2.5-2.3l2,2.1
	L28.4,12.6z"/>
<g transform="translate(0,-952.36216)">
	<path d="M29.5,971.7c-0.2,0.1-0.3,0.2-0.3,0.4l0.1,2.6l-1.4,1.1c0-0.3,0-0.6-0.1-0.8c-0.4-1.2-1.6-1.1-3-0.6
		c-1.4,0.5-2.4,1.2-2,2.3c0.1,0.3,0.2,0.5,0.4,0.7l-1.8,0l-1.6-2c-0.1-0.2-0.3-0.2-0.5-0.1c-0.2,0.1-0.3,0.3-0.2,0.6
		c0,0,0,0.1,0.1,0.1l1.7,2.2c0.1,0.1,0.2,0.2,0.3,0.2l1.9,0c-0.5,0.4-1,0.9-1.4,1.5c-0.9,1.2-1.7,2.8-1.7,4.4c0,1.5,0.3,2.5,0.9,3.2
		c0.6,0.7,1.5,0.9,2.4,0.9c0.9,0,1.8-0.1,2.5-0.8c0.3-0.3,0.6-0.7,0.7-1.2c1.1,1.4,2.3,2.1,3.2,1.8c0.9-0.3,1.4-1.6,1.4-3.4
		c0.4,0.3,0.9,0.4,1.3,0.4c0.9,0.1,1.7-0.3,2.4-0.9c0.7-0.6,1.2-1.3,1.3-2.2c0.1-0.9-0.3-1.9-1.3-3.1c-1-1.2-2.6-2-4.1-2.4
		c-0.7-0.2-1.4-0.3-2-0.3l1.5-1.2c0.1-0.1,0.2-0.2,0.2-0.3l-0.1-2.8c0-0.2-0.2-0.4-0.4-0.4C29.6,971.6,29.6,971.6,29.5,971.7
		L29.5,971.7z M24.4,978.6c0.1,0,0.2-0.1,0.3-0.1c0.2,0,0.3,0.1,0.5,0.3c0.2,0.3,0.3,0.7,0.4,1.3c0.2,1.1,0.1,2.7,0.1,4.1
		c0,1.3-0.4,2.1-0.8,2.5c-0.4,0.4-1,0.5-1.7,0.5c-0.7,0-1.3-0.2-1.7-0.6c-0.4-0.4-0.7-1.2-0.6-2.5c0-1.3,0.7-2.7,1.5-3.8
		c0.4-0.6,0.9-1,1.3-1.3c0.2-0.2,0.4-0.3,0.6-0.3C24.3,978.7,24.3,978.7,24.4,978.6L24.4,978.6z M27.6,977.5c0,0,0.1,0,0.1,0
		c0.2-0.1,0.4-0.1,0.7-0.1c0.5,0,1.2,0,1.9,0.2c1.4,0.3,2.8,1.1,3.6,2.1c0.9,1,1.1,1.8,1,2.4c-0.1,0.6-0.4,1.1-1,1.5
		c-0.6,0.5-1.1,0.7-1.7,0.7c-0.6,0-1.3-0.4-2.1-1.4c-0.9-1.1-1.9-2.3-2.5-3.3c-0.3-0.5-0.5-0.9-0.5-1.2c0-0.3,0-0.4,0.2-0.6
		C27.4,977.6,27.5,977.6,27.6,977.5L27.6,977.5z"/>
</g>
</svg>
