<?xml version="1.0" encoding="utf-8"?>
<!-- Generator: Adobe Illustrator 25.0.1, SVG Export Plug-In . SVG Version: 6.00 Build 0)  -->
<svg version="1.1" id="Layer_1" xmlns="http://www.w3.org/2000/svg" xmlns:xlink="http://www.w3.org/1999/xlink" x="0px" y="0px"
	 viewBox="0 0 36 36" style="enable-background:new 0 0 36 36;" xml:space="preserve">
<path d="M17,0.3c-0.3-0.3-0.8-0.3-1.1,0L9.2,6.5C8.9,6.7,8.9,7.1,9,7.4L11,11L0.3,20.9C0,21.2,0,21.7,0.3,22c0.3,0.3,0.8,0.3,1.1,0
	l10.6-9.9l3.4,2.2c0.3,0.2,0.7,0.2,1-0.1l6.7-6.2c0.3-0.3,0.3-0.8,0-1.1L17,0.3z M18.7,3.6l1.4,1.5l-1.8,1.6l-1.4-1.5L18.7,3.6z
	 M17.7,7.4l-1.6,1.4l-1.4-1.5l1.6-1.4L17.7,7.4z M16.6,1.3L18,2.8l-1.8,1.6l-1.4-1.5L16.6,1.3z M14.1,3.5l1.4,1.5L14,6.5L12.6,5
	L14.1,3.5z M10.3,7.1l1.6-1.5l1.4,1.5l-1.9,1.7L10.3,7.1z M12.3,10.8l-0.5-0.9l2.2-2l1.4,1.5l-2.2,2L12.3,10.8z M16,13.2l-1.7-1.3
	l1.9-1.7l1.4,1.5L16,13.2z M18.2,11.1l-1.4-1.5l1.6-1.4l1.4,1.5L18.2,11.1z M20.4,9.1L19,7.5l1.8-1.6l1.4,1.5L20.4,9.1z"/>
<g transform="translate(0,-952.36216)">
	<path d="M26.6,964.1c-0.3,0.1-0.4,0.3-0.4,0.6l0.1,3.7l-2.1,1.6c0-0.4,0-0.8-0.1-1.2c-0.6-1.7-2.4-1.5-4.4-0.8
		c-2,0.7-3.5,1.7-2.9,3.4c0.1,0.4,0.3,0.7,0.6,1l-2.7,0l-2.2-3c-0.2-0.2-0.5-0.3-0.7-0.2c-0.3,0.1-0.5,0.5-0.4,0.8
		c0,0.1,0.1,0.1,0.1,0.2l2.4,3.2c0.1,0.2,0.3,0.2,0.5,0.2l2.7,0c-0.7,0.5-1.5,1.3-2.1,2.1c-1.4,1.8-2.5,4.1-2.5,6.4
		c-0.1,2.2,0.4,3.7,1.3,4.7c0.9,1,2.2,1.3,3.5,1.3c1.3,0,2.6-0.2,3.6-1.1c0.5-0.4,0.8-1,1.1-1.7c1.6,2.1,3.3,3.1,4.6,2.6
		c1.3-0.5,2.1-2.3,2-4.9c0.6,0.4,1.3,0.6,1.9,0.6c1.3,0.1,2.5-0.5,3.5-1.3c1-0.8,1.8-1.9,1.9-3.2c0.1-1.3-0.4-2.8-1.8-4.5
		c-1.5-1.8-3.8-2.9-6-3.5c-1-0.3-2-0.4-3-0.4l2.1-1.7c0.2-0.1,0.2-0.3,0.2-0.5l-0.1-4c0-0.3-0.3-0.6-0.6-0.6
		C26.7,964.1,26.7,964.1,26.6,964.1L26.6,964.1z M19.1,974.3c0.2-0.1,0.3-0.1,0.5-0.1c0.3,0,0.5,0.1,0.7,0.5
		c0.2,0.4,0.4,1.1,0.5,1.9c0.2,1.6,0.2,3.9,0.1,5.9c-0.1,1.9-0.5,3-1.1,3.6c-0.6,0.6-1.4,0.8-2.5,0.7c-1.1,0-1.9-0.3-2.5-0.9
		c-0.6-0.6-1-1.7-0.9-3.6c0-1.8,1-4,2.2-5.6c0.6-0.8,1.3-1.5,1.9-1.9c0.3-0.2,0.6-0.4,0.9-0.5C19,974.3,19.1,974.3,19.1,974.3
		L19.1,974.3z M23.8,972.6c0.1,0,0.1,0,0.2-0.1c0.3-0.1,0.6-0.1,1-0.2c0.8,0,1.7,0.1,2.7,0.3c2,0.5,4,1.6,5.2,3
		c1.2,1.5,1.6,2.6,1.5,3.4c-0.1,0.8-0.6,1.5-1.4,2.2c-0.8,0.7-1.6,1.1-2.4,1c-0.8-0.1-1.8-0.6-3.1-2.1c-1.3-1.6-2.8-3.3-3.6-4.7
		c-0.4-0.7-0.7-1.4-0.7-1.8s0-0.6,0.3-0.8C23.5,972.8,23.7,972.7,23.8,972.6L23.8,972.6z"/>
</g>
</svg>
